<svg xmlns="http://www.w3.org/2000/svg" xmlns:xlink="http://www.w3.org/1999/xlink" width="80" height="80" viewBox="0 0 80 80"><defs><style>.a,.c{fill:#fff;}.a{stroke:#707070;}.b{opacity:0.1;clip-path:url(#a);}</style><clipPath id="a"><rect class="a" width="80" height="80" transform="translate(543 1031)"/></clipPath></defs><g class="b" transform="translate(-543 -1031)"><g transform="translate(543.001 1039.901)"><path class="c" d="M30.417,24.77,28.6,35.132a1.276,1.276,0,0,0,1.841,1.36L40,31.58l9.567,4.912a1.276,1.276,0,0,0,1.838-1.36L49.588,24.77,57.339,17.4a1.276,1.276,0,0,0-.7-2.187L45.908,13.688,41.141,4.256a1.276,1.276,0,0,0-2.278,0L34.1,13.684,23.367,15.205a1.276,1.276,0,0,0-.7,2.187Zm.809-6.581,5.786-.821,2.568-5.079a.486.486,0,0,1,.853,0L43,17.368l5.786.821a.486.486,0,0,1,.264.819l-4.188,3.981.983,5.592a.486.486,0,0,1-.69.508L40,26.438l-5.155,2.645a.476.476,0,0,1-.688-.508l.983-5.585L30.96,19.01a.486.486,0,0,1,.262-.826Z"/><path class="c" d="M79.155,22.782c-7.826-1.543-10.939.371-11.819.809.062-.748.081-1.515.105-2.28,2.234-.971,6.367-3.167,8.234-7.17C76.43,12.523,78.1,8.7,74.965.693a1.047,1.047,0,0,0-1.3-.622c-5.545,1.842-9.147,4.3-10.922,8.1-2.229,4.778-.559,10.225.052,11.9C62.666,34.126,54.715,50.24,40,50.24h-.015c-14.143,0-22.658-15.445-22.79-30.171.61-1.671,2.28-7.123.052-11.9C14.647,2.579,7.858.471,7.57.384L6.453.045A1.046,1.046,0,0,0,5.181.636L4.723,1.708c-.12.278-2.866,6.834-.257,12.427,1.873,4,5.851,6.2,8.084,7.17.026.764.045,1.532.107,2.281-3.711-1.834-7.4-1.71-11.819-.809a1.044,1.044,0,0,0-.826,1.183c.847,5.77,2.59,9.6,6.034,12.014a14.473,14.473,0,0,0,8.278,2.309,19.785,19.785,0,0,0,2.156-.123q.7,1.483,1.509,2.861c-.044,0-.084-.011-.126-.011-1.781,0-5.961.1-11.888,6.329a1.047,1.047,0,0,0,0,1.441c4.007,4.237,7.692,6.335,11.895,6.335,4.146,0,7.624-2.352,9.552-3.979a24.212,24.212,0,0,0,3.5,1.876,16.541,16.541,0,0,0-5.289,5.666A2.349,2.349,0,1,0,29.718,61a11.759,11.759,0,0,1,20.561,0,2.344,2.344,0,0,0,2.83,1.065h0a2.357,2.357,0,0,0,1.256-3.387,16.541,16.541,0,0,0-5.292-5.666,24.481,24.481,0,0,0,3.508-1.88c1.923,1.619,5.4,3.979,9.552,3.979,1.781,0,5.959-.1,11.888-6.329a1.049,1.049,0,0,0,.008-1.443c-4.01-4.235-7.695-6.333-11.9-6.333-.045,0-.084.011-.13.011q.809-1.376,1.507-2.861a19.849,19.849,0,0,0,2.16.123A14.926,14.926,0,0,0,74.1,35.972c1.457-1.025,4.614-3.505,5.883-12a1.052,1.052,0,0,0-.832-1.188ZM8.182,6.767a.782.782,0,0,1,1.106-.549c5.181,2.446,4.881,7.355,4.512,9.354a.777.777,0,0,1-1.044.588C7.345,14.033,7.758,8.874,8.182,6.767ZM13.7,33.556c-5.909-.306-7.692-4.119-8.207-5.935a.779.779,0,0,1,.743-.989c6.207-.042,7.841,4.059,8.257,5.977a.779.779,0,0,1-.793.947Zm9.246,14.99a8.716,8.716,0,0,1-10.183.028.782.782,0,0,1,.011-1.3,8.659,8.659,0,0,1,10.2-.019.784.784,0,0,1-.028,1.287Zm44.285-1.273a.782.782,0,0,1,.013,1.3,8.737,8.737,0,0,1-10.185-.028.782.782,0,0,1-.019-1.285A8.676,8.676,0,0,1,67.231,47.274ZM70.718,6.218a.782.782,0,0,1,1.106.549c.423,2.1.835,7.266-4.574,9.39A.779.779,0,0,1,66.2,15.57C65.836,13.573,65.534,8.665,70.718,6.218Zm3.793,21.4c-.515,1.816-2.3,5.629-8.207,5.935a.78.78,0,0,1-.8-.947c.424-1.918,2.058-6.019,8.266-5.977a.779.779,0,0,1,.741.989Z"/></g></g></svg>