<svg xmlns="http://www.w3.org/2000/svg" xmlns:xlink="http://www.w3.org/1999/xlink" width="80" height="80" viewBox="0 0 80 80"><defs><style>.a,.c{fill:#fff;}.a{stroke:#707070;}.b{opacity:0.05;clip-path:url(#a);}</style><clipPath id="a"><rect class="a" width="80" height="80" transform="translate(0 107)"/></clipPath></defs><g class="b" transform="translate(0 -107)"><path class="c" d="M79.692,27.958,66.923,5.07A2.43,2.43,0,0,0,64.8,3.824H15.2A2.429,2.429,0,0,0,13.079,5.07L.308,27.958a2.43,2.43,0,0,0,.238,2.718L38.119,76.81c.012.015.026.028.038.042.039.046.079.09.121.133l.014.016.034.031.012.011q.065.061.133.117l.064.051c.047.036.1.069.145.1l.07.045c.042.025.085.048.129.071l.053.028.049.024c.048.022.1.041.149.061.031.012.062.026.094.037l.017.007.007,0c.021.007.044.011.066.017a2.429,2.429,0,0,0,.249.06c.035.006.07.013.1.018a2.428,2.428,0,0,0,.3.024l.029,0h0l.028,0a2.428,2.428,0,0,0,.3-.024c.035,0,.069-.011.1-.017a2.347,2.347,0,0,0,.251-.06c.021-.006.043-.01.064-.017l.007,0,.018-.007c.032-.011.062-.024.093-.036.051-.019.1-.039.15-.061l.05-.024.05-.027c.044-.023.088-.046.13-.072l.071-.046c.049-.032.1-.065.144-.1l.064-.051c.047-.038.091-.077.134-.117l.013-.011L41.71,77l.016-.017c.043-.044.085-.089.124-.136.012-.014.025-.026.036-.04L79.455,30.676A2.43,2.43,0,0,0,79.692,27.958ZM44.8,8.683l6.88,18.03H28.328L35.21,8.683Zm7.05,22.888L40,67.514,28.158,31.571Zm-28.8,0L33.578,63.54,7.541,31.571Zm33.918,0h15.5L46.428,63.539Zm16.473-4.859H56.876L50,8.683H63.375ZM16.627,8.683H30.01l-6.882,18.03H6.567Z" transform="translate(0 106.235)"/></g></svg>