<svg xmlns="http://www.w3.org/2000/svg" width="21.998" height="21.993" viewBox="0 0 21.998 21.993"><defs><style>.a{fill:#8a56ac;}</style></defs><g transform="translate(0 -11.807)"><g transform="translate(3.959 18.594)"><path class="a" d="M106.189,172.3a.685.685,0,0,0-.145-.418l-.1-.126-.034-.04-.071-.083-.041-.046-.068-.076-.042-.045-.073-.076-.039-.04-.1-.1-.029-.028-.094-.088-.048-.043-.069-.061-.055-.047-.065-.054-.058-.047-.065-.051-.059-.046-.069-.051-.115-.083-.057-.04-.074-.05-.053-.035-.077-.049-.05-.031-.082-.05-.042-.025a3.491,3.491,0,0,0-.332-.18h-.006l-.105-.051-.029-.014-.1-.047-.029-.013-.109-.047-.013-.005q-.25-.1-.508-.183h-.008l-.126-.037h-.01a5.846,5.846,0,0,0-.675-.147h0q.053-.061.1-.124l.008-.01q.048-.06.093-.123l.011-.015q.044-.061.086-.124l.012-.019q.041-.063.079-.127l.012-.02q.038-.065.074-.131l.011-.02q.036-.067.069-.136l.008-.017c.023-.047.045-.1.065-.144v-.011c.022-.051.042-.1.062-.154h0c.019-.052.038-.1.055-.157V168.3q.025-.076.046-.153l.006-.019c.014-.05.027-.1.039-.152l0-.024q.017-.076.032-.152v-.025q.014-.077.025-.155V167.6q.011-.079.018-.159v-.021c0-.055.009-.11.011-.166v-.594a4.359,4.359,0,0,0-.152-1.143q-.013-.05-.028-.1a4.273,4.273,0,0,0-.173-.477l-.041-.092a4.221,4.221,0,0,0-.458-.768,4.147,4.147,0,0,0-.456-.514,3.7,3.7,0,0,0-.3-.256l-.077-.059q-.078-.058-.159-.113-.121-.082-.249-.154-.085-.048-.172-.092a3.813,3.813,0,0,0-1.727-.413h-.064a3.813,3.813,0,0,0-1.727.413q-.087.044-.172.092-.127.072-.249.154-.081.054-.159.113l-.077.059q-.154.12-.3.256a4.146,4.146,0,0,0-.456.514,4.229,4.229,0,0,0-.458.768l-.041.092a4.27,4.27,0,0,0-.173.477q-.015.049-.028.1a4.358,4.358,0,0,0-.152,1.143v.594c0,.056.006.111.011.166v.021a1.229,1.229,0,0,0,.018.159v.024q.011.078.025.155v.025q.014.077.032.152l.006.024q.018.076.038.152l.006.019c.014.051.03.1.046.153v.012c.017.053.036.1.055.157s.04.1.062.154v.011c.021.048.043.1.065.144l.008.017q.033.069.069.136l.011.02q.036.066.074.131l.012.02.079.127.013.019q.042.063.086.124l.011.015q.045.062.093.123l.008.01.1.124h0a5.843,5.843,0,0,0-.675.147h-.01l-.126.037h-.008q-.258.08-.508.183l-.013.005-.109.047-.029.013-.1.047-.029.014-.105.051h-.006q-.169.085-.332.18l-.043.025-.082.05-.05.031-.077.049-.053.035-.074.05-.057.04-.115.083-.069.052-.059.046-.065.051-.058.047-.065.055-.055.047-.069.061-.048.043-.1.088-.028.027-.1.1-.039.04-.073.076-.042.045-.069.076-.04.046-.072.083-.034.04q-.052.062-.1.126a.685.685,0,0,0-.145.418l-.04,4.708a.676.676,0,0,0,.262.544.627.627,0,0,0,.087.055.374.374,0,0,0,.045.022h0l.042.015a.609.609,0,0,0,.076.021l.023,0h.028a.605.605,0,0,0,.083,0h.039l.045-.007.034-.006h0a.6.6,0,0,0,.066-.019l6.2-2.178,6.2,2.178a.606.606,0,0,0,.2.034.615.615,0,0,0,.373-.127.676.676,0,0,0,.262-.544Z" transform="translate(-92.147 -162.467)"/></g><g transform="translate(0 11.807)"><path class="a" d="M21.969,20.162a.65.65,0,0,0-.413-.429l-6.241-2.062-3.8-5.585a.618.618,0,0,0-1.033,0l-3.8,5.585L.444,19.733a.65.65,0,0,0-.413.429.692.692,0,0,0,.093.6l3.881,5.5a7.3,7.3,0,0,1,2.005-1.31,5.385,5.385,0,0,1-.3-1.773v-.405a5.394,5.394,0,0,1,5.256-5.51h.064a5.394,5.394,0,0,1,5.256,5.51v.4a5.388,5.388,0,0,1-.3,1.773,7.3,7.3,0,0,1,2.005,1.308l3.881-5.5a.692.692,0,0,0,.1-.6Z" transform="translate(0 -11.807)"/></g></g></svg>