<svg xmlns="http://www.w3.org/2000/svg" xmlns:xlink="http://www.w3.org/1999/xlink" width="80" height="80" viewBox="0 0 80 80"><defs><style>.a,.c{fill:#fff;}.a{stroke:#707070;}.b{opacity:0.05;clip-path:url(#a);}</style><clipPath id="a"><rect class="a" width="80" height="80" transform="translate(0 107)"/></clipPath></defs><g class="b" transform="translate(0 -107)"><g transform="translate(0 112.565)"><path class="c" d="M79.886,78.682l-6.5-20.224a2.353,2.353,0,0,0-2.24-1.633H60.538L54.564,38.234a2.353,2.353,0,0,0-2.24-1.633H27.675a2.353,2.353,0,0,0-2.24,1.633L19.462,56.825H8.853a2.353,2.353,0,0,0-2.24,1.633L.114,78.682a2.354,2.354,0,0,0,2.24,3.073H77.646A2.354,2.354,0,0,0,79.886,78.682ZM29.391,41.306H50.609L55.6,56.825H24.4ZM40,71.711,36.729,61.53h6.542ZM5.582,77.049,10.568,61.53H31.786l4.986,15.519Zm37.646,0L48.214,61.53H69.432l4.986,15.519Z" transform="translate(0 -12.886)"/><path class="c" d="M83.845,30.565l5.355-3.6a2.353,2.353,0,1,0-2.623-3.907l-5.355,3.6a2.353,2.353,0,0,0,2.623,3.907Z" transform="translate(-16.036 -10.098)"/><path class="c" d="M8.285,26.97l5.355,3.6a2.353,2.353,0,1,0,2.623-3.907l-5.355-3.6A2.353,2.353,0,0,0,8.285,26.97Z" transform="translate(-1.449 -10.098)"/><path class="c" d="M49.412,16.961a2.353,2.353,0,0,0,2.353-2.353V9.31a2.353,2.353,0,1,0-4.706,0v5.3A2.353,2.353,0,0,0,49.412,16.961Z" transform="translate(-9.412 -6.957)"/></g></g></svg>