<svg xmlns="http://www.w3.org/2000/svg" xmlns:xlink="http://www.w3.org/1999/xlink" width="30" height="30" viewBox="0 0 30 30"><defs><style>.a,.e{fill:#fff;}.a{stroke:#707070;}.b{fill:none;}.c{clip-path:url(#a);}.d{clip-path:url(#b);}</style><clipPath id="a"><rect class="a" width="30" height="30" transform="translate(11 11)"/></clipPath><clipPath id="b"><rect class="b" width="30" height="22.286"/></clipPath></defs><g class="c" transform="translate(-11 -11)"><g class="d" transform="translate(11 14.857)"><path class="e" d="M14.944,4.088a9.083,9.083,0,0,1,9.08,9.08,8.845,8.845,0,0,1-.05.978,17.288,17.288,0,0,1-3.313,1.132,21.281,21.281,0,0,1-3.251.5,1.634,1.634,0,0,0-1.448-.857H14.137a1.632,1.632,0,0,0,0,3.251h1.824a1.632,1.632,0,0,0,1.478-.975,26.169,26.169,0,0,0,3.547-.523,18.6,18.6,0,0,0,2.642-.825A9.086,9.086,0,1,1,14.944,4.088ZM15.012.035A13.2,13.2,0,0,0,2.4,9.458H1.933A1.948,1.948,0,0,0,0,11.382V14.4a1.948,1.948,0,0,0,1.939,1.939H4.481V9.7a10.818,10.818,0,0,1,2.7-4.342A11.11,11.11,0,0,1,25.5,9.5V16.36h2.521a1.948,1.948,0,0,0,1.942-1.939V11.382a1.948,1.948,0,0,0-1.942-1.924H27.63A13.2,13.2,0,0,0,15.012.035Zm0,0"/></g></g></svg>