<svg xmlns="http://www.w3.org/2000/svg" width="22" height="20" viewBox="0 0 22 20"><defs><style>.a{fill:#717171;}</style></defs><g transform="translate(-12.32 -16.206)"><g transform="translate(12.321 16.206)"><path class="a" d="M33.951,25.091l-1.858-1.62V18.1a.633.633,0,0,0-.647-.619H26.972a.633.633,0,0,0-.647.619v.344L24.08,16.489a1.161,1.161,0,0,0-1.52,0l-9.871,8.6a1.041,1.041,0,0,0-.292,1.187,1.121,1.121,0,0,0,1.052.689h1.576v8.619a.634.634,0,0,0,.647.619h5.411a.634.634,0,0,0,.647-.619v-5.23h3.18v5.233a.633.633,0,0,0,.647.619h5.41a.634.634,0,0,0,.647-.619V26.968h1.577a1.121,1.121,0,0,0,1.052-.689A1.04,1.04,0,0,0,33.951,25.091Zm-2.983.639a.633.633,0,0,0-.647.619v8.619H26.2V29.735a.633.633,0,0,0-.647-.619H21.084a.634.634,0,0,0-.647.619v5.233H16.32V26.349a.633.633,0,0,0-.647-.619h-1.8l9.448-8.23,3.215,2.8a.67.67,0,0,0,.7.109.618.618,0,0,0,.385-.566V18.72H30.8v5.025a.606.606,0,0,0,.211.457l1.753,1.528Z" transform="translate(-12.321 -16.206)"/></g></g></svg>