<svg xmlns="http://www.w3.org/2000/svg" xmlns:xlink="http://www.w3.org/1999/xlink" width="80" height="80" viewBox="0 0 80 80"><defs><style>.a,.c{fill:#fff;}.a{stroke:#707070;}.b{opacity:0.05;clip-path:url(#a);}</style><clipPath id="a"><rect class="a" width="80" height="80" transform="translate(0 107)"/></clipPath></defs><g class="b" transform="translate(0 -107)"><g transform="translate(0 112)"><path class="c" d="M76.05,38.917a3.33,3.33,0,0,0-3.732-.023L55.458,50.132,43.814,26.843a3.333,3.333,0,0,0-5.962,0L26.208,50.132,9.349,38.893a3.333,3.333,0,0,0-5.1,3.5l6.587,29.643v9.634A3.333,3.333,0,0,0,14.167,85H67.5a3.333,3.333,0,0,0,3.333-3.333V72.033L77.421,42.39a3.333,3.333,0,0,0-1.37-3.473Zm-50.4,18.857a3.366,3.366,0,0,0,4.83-1.283l10.352-20.7,10.352,20.7a3.366,3.366,0,0,0,4.83,1.283l13.1-8.732L64.826,68.333H16.84L12.554,49.042Zm38.515,20.56H17.5V75H64.167Z" transform="translate(-0.833 -15)"/><circle class="c" cx="3.333" cy="3.333" r="3.333" transform="translate(36.667)"/><circle class="c" cx="3.333" cy="3.333" r="3.333" transform="translate(73.333 16.667)"/><circle class="c" cx="3.333" cy="3.333" r="3.333" transform="translate(0 16.667)"/></g></g></svg>