<svg xmlns="http://www.w3.org/2000/svg" width="60" height="60" viewBox="0 0 60 60"><defs><style>.a{fill:none;}.b{fill:#fff;}</style></defs><rect class="a" width="60" height="60"/><g transform="translate(4 4)"><path class="b" d="M66.1,35.228a1.536,1.536,0,0,0-.976-1.013l-14.75-4.873-8.98-13.2a1.46,1.46,0,0,0-2.443,0l-8.979,13.2-14.75,4.872a1.538,1.538,0,0,0-.976,1.013,1.639,1.639,0,0,0,.221,1.422l9.2,13.031-.043,5.085L23.53,65.892a1.6,1.6,0,0,0,.618,1.286,1.443,1.443,0,0,0,1.358.219l14.666-5.146L54.838,67.4a1.425,1.425,0,0,0,.476.082,1.451,1.451,0,0,0,.881-.3,1.6,1.6,0,0,0,.618-1.286l-.094-11.127-.043-5.086,9.2-13.031a1.636,1.636,0,0,0,.223-1.424ZM40.65,59.1a1.446,1.446,0,0,0-.953,0L26.55,63.716l.071-8.345a11.139,11.139,0,0,1,8.452-3.932h10.2a11.139,11.139,0,0,1,8.452,3.932l.071,8.345ZM33.673,42.359V41.4A6.593,6.593,0,0,1,40.1,34.666h.152A6.592,6.592,0,0,1,46.672,41.4v.958a5.81,5.81,0,0,1-5.662,5.936H39.335A5.81,5.81,0,0,1,33.673,42.359Zm20.295,5.874a1.631,1.631,0,0,0-.294.95l.017,1.957a13.98,13.98,0,0,0-6.271-2.677,9.293,9.293,0,0,0,2.255-6.1V41.4a9.67,9.67,0,0,0-9.424-9.879H40.1A9.671,9.671,0,0,0,30.673,41.4v.959a9.293,9.293,0,0,0,2.255,6.1,14,14,0,0,0-6.271,2.677l.017-1.957a1.624,1.624,0,0,0-.294-.95L18.131,36.551l13.223-4.368a1.506,1.506,0,0,0,.77-.587l8.05-11.834L48.221,31.6a1.51,1.51,0,0,0,.77.587l13.224,4.368Z" transform="translate(-14.173 -15.482)"/></g></svg>