<svg xmlns="http://www.w3.org/2000/svg" xmlns:xlink="http://www.w3.org/1999/xlink" width="80" height="80" viewBox="0 0 80 80"><defs><style>.a,.c{fill:#fff;}.a{stroke:#707070;opacity:0.2;}.b{opacity:0.05;clip-path:url(#a);}</style><clipPath id="a"><rect class="a" width="80" height="80" transform="translate(0 107)"/></clipPath></defs><g class="b" transform="translate(0 -107)"><g transform="translate(0 107)"><path class="c" d="M72.969,0H7.031A7.039,7.039,0,0,0,0,7.031V10.6A25.66,25.66,0,0,0,5.6,26.576a26.109,26.109,0,0,0,12.037,8.285l2.484.828A23.348,23.348,0,0,0,32.969,45.731v3.644a2.347,2.347,0,0,1-2.344,2.344,7.039,7.039,0,0,0-7.031,7.031v2.344H21.25a2.344,2.344,0,0,0-2.344,2.344V75.312H16.563a2.344,2.344,0,1,0,0,4.688H63.438a2.344,2.344,0,0,0,0-4.687H61.094V63.437a2.344,2.344,0,0,0-2.344-2.344H56.406V58.75a7.039,7.039,0,0,0-7.031-7.031,2.347,2.347,0,0,1-2.344-2.344V45.731A23.347,23.347,0,0,0,59.865,35.7l2.62-.834.03-.01A25.572,25.572,0,0,0,80,10.6V7.031A7.039,7.039,0,0,0,72.969,0ZM9.264,23.648A20.959,20.959,0,0,1,4.687,10.6V7.031A2.347,2.347,0,0,1,7.031,4.688h7.433L16.85,26.155a23.087,23.087,0,0,0,.717,3.672,21.187,21.187,0,0,1-8.3-6.179Zm14.33,51.664V65.781H56.406v9.531ZM44.162,41.659a2.343,2.343,0,0,0-1.818,2.284v5.432a7.039,7.039,0,0,0,7.031,7.031,2.347,2.347,0,0,1,2.344,2.344v2.344H28.281V58.75a2.347,2.347,0,0,1,2.344-2.344,7.039,7.039,0,0,0,7.031-7.031V43.943a2.343,2.343,0,0,0-1.818-2.284A18.6,18.6,0,0,1,21.509,25.637L19.181,4.687H60.819l-2.328,20.95A18.6,18.6,0,0,1,44.162,41.659ZM75.312,10.6a20.884,20.884,0,0,1-12.9,19.3,23.08,23.08,0,0,0,.737-3.744L65.535,4.687h7.433a2.347,2.347,0,0,1,2.344,2.344Zm0,0" transform="translate(0 0)"/><path class="c" d="M56.774,18.392l-5.267-.747-2.346-4.64a2.344,2.344,0,0,0-4.183,0l-2.346,4.64-5.267.747a2.344,2.344,0,0,0-1.287,4.018l3.778,3.6-.889,5.062a2.343,2.343,0,0,0,3.378,2.491l4.724-2.425,4.724,2.425a2.344,2.344,0,0,0,3.379-2.491l-.889-5.062,3.777-3.6a2.343,2.343,0,0,0-1.287-4.018Zm-6.632,5.084a2.343,2.343,0,0,0-.693,2.1l.291,1.655-1.6-.821a2.344,2.344,0,0,0-2.14,0l-1.6.821.291-1.655a2.346,2.346,0,0,0-.693-2.1l-1.18-1.122,1.684-.239a2.342,2.342,0,0,0,1.762-1.263l.806-1.594.805,1.593a2.344,2.344,0,0,0,1.763,1.263l1.684.239Zm0,0" transform="translate(-7.07 -2.344)"/></g></g></svg>