<svg xmlns="http://www.w3.org/2000/svg" xmlns:xlink="http://www.w3.org/1999/xlink" width="80" height="80" viewBox="0 0 80 80"><defs><style>.a,.c{fill:#fff;}.a{stroke:#707070;}.b{opacity:0.05;clip-path:url(#a);}</style><clipPath id="a"><rect class="a" width="80" height="80" transform="translate(0 107)"/></clipPath></defs><g class="b" transform="translate(0 -107)"><g transform="translate(9.531 107)"><path class="c" d="M42.383,0A30.462,30.462,0,0,0,25.977,56.133V77.656a2.344,2.344,0,0,0,3.644,1.95L42.383,71.1l12.762,8.508a2.344,2.344,0,0,0,3.644-1.95V56.133A30.462,30.462,0,0,0,42.383,0ZM54.1,73.277,43.683,66.331a2.344,2.344,0,0,0-2.6,0L30.664,73.277V58.592a30.452,30.452,0,0,0,23.437,0ZM42.383,56.25A25.781,25.781,0,1,1,68.164,30.469,25.811,25.811,0,0,1,42.383,56.25Z" transform="translate(-11.914)"/><g transform="translate(11.719 11.719)"><path class="c" d="M63.951,27.915a2.344,2.344,0,0,0-1.9-1.606L51.922,24.873,47.4,15.935a2.344,2.344,0,0,0-4.183,0L38.7,24.873,28.577,26.31a2.344,2.344,0,0,0-1.287,4.018l7.293,6.941-1.719,9.786a2.344,2.344,0,0,0,3.379,2.491l9.069-4.655,9.069,4.655a2.344,2.344,0,0,0,3.379-2.491l-1.719-9.786,7.293-6.941A2.344,2.344,0,0,0,63.951,27.915ZM51.9,34.74a2.344,2.344,0,0,0-.693,2.1l1.121,6.38-5.945-3.052a2.344,2.344,0,0,0-2.141,0L38.3,43.223l1.121-6.38a2.344,2.344,0,0,0-.693-2.1l-4.7-4.469,6.542-.928a2.344,2.344,0,0,0,1.763-1.263l2.978-5.892,2.978,5.892a2.343,2.343,0,0,0,1.763,1.263l6.542.928Z" transform="translate(-26.562 -14.648)"/></g></g></g></svg>