<svg xmlns="http://www.w3.org/2000/svg" width="24.005" height="19.484" viewBox="0 0 24.005 19.484"><defs><style>.a{fill:#717171;}</style></defs><path class="a" d="M21.916,57.941l1.943-2.591a.7.7,0,0,0-.562-1.125H19.531a.7.7,0,0,0-.562.281l-.074.1a9.741,9.741,0,1,0,0,6.67l.074.1a.7.7,0,0,0,.562.281H23.3a.7.7,0,0,0,.563-1.125Zm-4.069,1.94a8.334,8.334,0,1,1,0-3.88l-.759,1.012-.169.225h-.488a6.728,6.728,0,1,0,0,1.406h.488l.169.225Zm-4.459-2.643a3.716,3.716,0,1,0,0,1.406h1.627a5.322,5.322,0,1,1,0-1.406ZM9.741,58.644h2.2a2.309,2.309,0,1,1,0-1.406h-2.2a.7.7,0,0,0,0,1.406Zm10.734-.281,1.416,1.888H19.883l-1.732-2.309,1.732-2.309h2.008l-1.416,1.888a.7.7,0,0,0,0,.841Z" transform="translate(-0.002 -48.199)"/></svg>